REM DIRINDEX 1\3,1\2\4,1\2\5,1\2\6
REM DIRNAME folder01,folder02,folder03,folder04,folder05,folder06
TITLE ""
FILE "003.mp3" MP3
  TRACK 01 AUDIO
    TITLE "4:cjc137_0087"
    INDEX 01 00:00:00
  TRACK 02 AUDIO
    TITLE "0:"
    INDEX 01 00:00:74
  TRACK 03 AUDIO
    TITLE "6:cjc137_0088"
    INDEX 01 00:01:09
  TRACK 04 AUDIO
    TITLE "0:"
    INDEX 01 00:01:62
  TRACK 05 AUDIO
    TITLE "5:cjc137_0089"
    INDEX 01 00:01:71
  TRACK 06 AUDIO
    TITLE "0:"
    INDEX 01 00:02:71
  TRACK 07 AUDIO
    TITLE "4:cjc137_0090"
    INDEX 01 00:04:01
  TRACK 08 AUDIO
    TITLE "0:"
    INDEX 01 00:05:05
  TRACK 09 AUDIO
    TITLE "6:cjc137_0091"
    INDEX 01 00:05:16
  TRACK 10 AUDIO
    TITLE "0:"
    INDEX 01 00:06:43
  TRACK 11 AUDIO
    TITLE "5:cjc137_0092"
    INDEX 01 00:06:53
  TRACK 12 AUDIO
    TITLE "0:"
    INDEX 01 00:07:56
  TRACK 13 AUDIO
    TITLE "4:cjc137_0093"
    INDEX 01 00:08:64
  TRACK 14 AUDIO
    TITLE "0:"
    INDEX 01 00:10:14
  TRACK 15 AUDIO
    TITLE "6:cjc137_0094"
    INDEX 01 00:10:23
  TRACK 16 AUDIO
    TITLE "0:"
    INDEX 01 00:11:48
  TRACK 17 AUDIO
    TITLE "5:cjc137_0095"
    INDEX 01 00:11:58
  TRACK 18 AUDIO
    TITLE "0:"
    INDEX 01 00:13:08
  TRACK 19 AUDIO
    TITLE "4:cjc137_0096"
    INDEX 01 00:14:15
  TRACK 20 AUDIO
    TITLE "0:"
    INDEX 01 00:15:11
  TRACK 21 AUDIO
    TITLE "6:cjc137_0097"
    INDEX 01 00:15:23
  TRACK 22 AUDIO
    TITLE "0:"
    INDEX 01 00:16:32
  TRACK 23 AUDIO
    TITLE "5:cjc137_0098"
    INDEX 01 00:16:44
  TRACK 24 AUDIO
    TITLE "0:"
    INDEX 01 00:17:39
  TRACK 25 AUDIO
    TITLE "4:cjc137_0099"
    INDEX 01 00:18:46
  TRACK 26 AUDIO
    TITLE "0:"
    INDEX 01 00:19:44
  TRACK 27 AUDIO
    TITLE "6:cjc137_0100"
    INDEX 01 00:19:56
  TRACK 28 AUDIO
    TITLE "0:"
    INDEX 01 00:20:43
  TRACK 29 AUDIO
    TITLE "5:cjc137_0101"
    INDEX 01 00:20:53
  TRACK 30 AUDIO
    TITLE "0:"
    INDEX 01 00:21:53
  TRACK 31 AUDIO
    TITLE "4:cjc137_0102"
    INDEX 01 00:22:58
  TRACK 32 AUDIO
    TITLE "0:"
    INDEX 01 00:23:61
  TRACK 33 AUDIO
    TITLE "6:cjc137_0103"
    INDEX 01 00:23:73
  TRACK 34 AUDIO
    TITLE "0:"
    INDEX 01 00:24:55
  TRACK 35 AUDIO
    TITLE "5:cjc137_0104"
    INDEX 01 00:24:67
  TRACK 36 AUDIO
    TITLE "0:"
    INDEX 01 00:25:70
  TRACK 37 AUDIO
    TITLE "4:cjc137_0105"
    INDEX 01 00:27:06
  TRACK 38 AUDIO
    TITLE "0:"
    INDEX 01 00:28:23
  TRACK 39 AUDIO
    TITLE "6:cjc137_0106"
    INDEX 01 00:28:37
  TRACK 40 AUDIO
    TITLE "0:"
    INDEX 01 00:29:38
  TRACK 41 AUDIO
    TITLE "5:cjc137_0107"
    INDEX 01 00:29:52
  TRACK 42 AUDIO
    TITLE "0:"
    INDEX 01 00:30:69
  TRACK 43 AUDIO
    TITLE "4:cjc137_0108"
    INDEX 01 00:32:01
  TRACK 44 AUDIO
    TITLE "0:"
    INDEX 01 00:33:05
  TRACK 45 AUDIO
    TITLE "6:cjc137_0109"
    INDEX 01 00:33:17
  TRACK 46 AUDIO
    TITLE "0:"
    INDEX 01 00:34:04
  TRACK 47 AUDIO
    TITLE "5:cjc137_0110"
    INDEX 01 00:34:14
  TRACK 48 AUDIO
    TITLE "0:"
    INDEX 01 00:35:17
  TRACK 49 AUDIO
    TITLE "4:cjc137_0111"
    INDEX 01 00:36:25
  TRACK 50 AUDIO
    TITLE "0:"
    INDEX 01 00:37:18
  TRACK 51 AUDIO
    TITLE "6:cjc137_0112"
    INDEX 01 00:37:30
  TRACK 52 AUDIO
    TITLE "0:"
    INDEX 01 00:38:26
  TRACK 53 AUDIO
    TITLE "5:cjc137_0113"
    INDEX 01 00:38:35
  TRACK 54 AUDIO
    TITLE "0:"
    INDEX 01 00:39:29
  TRACK 55 AUDIO
    TITLE "4:cjc137_0114"
    INDEX 01 00:40:36
  TRACK 56 AUDIO
    TITLE "0:"
    INDEX 01 00:41:38
  TRACK 57 AUDIO
    TITLE "6:cjc137_0115"
    INDEX 01 00:41:49
  TRACK 58 AUDIO
    TITLE "0:"
    INDEX 01 00:42:49
  TRACK 59 AUDIO
    TITLE "5:cjc137_0116"
    INDEX 01 00:42:63
  TRACK 60 AUDIO
    TITLE "0:"
    INDEX 01 00:43:62
  TRACK 61 AUDIO
    TITLE "4:cjc137_0117"
    INDEX 01 00:44:71
  TRACK 62 AUDIO
    TITLE "0:"
    INDEX 01 00:46:11
  TRACK 63 AUDIO
    TITLE "6:cjc137_0118"
    INDEX 01 00:46:19
  TRACK 64 AUDIO
    TITLE "0:"
    INDEX 01 00:47:19
  TRACK 65 AUDIO
    TITLE "5:cjc137_0119"
    INDEX 01 00:47:30
  TRACK 66 AUDIO
    TITLE "0:"
    INDEX 01 00:48:44
  TRACK 67 AUDIO
    TITLE "4:cjc137_0120"
    INDEX 01 00:49:49
  TRACK 68 AUDIO
    TITLE "0:"
    INDEX 01 00:50:68
  TRACK 69 AUDIO
    TITLE "6:cjc137_0121"
    INDEX 01 00:51:03
  TRACK 70 AUDIO
    TITLE "0:"
    INDEX 01 00:52:14
  TRACK 71 AUDIO
    TITLE "5:cjc137_0122"
    INDEX 01 00:52:22
  TRACK 72 AUDIO
    TITLE "0:"
    INDEX 01 00:53:41
  TRACK 73 AUDIO
    TITLE "4:cjc137_0123"
    INDEX 01 00:54:48
  TRACK 74 AUDIO
    TITLE "0:"
    INDEX 01 00:55:59
  TRACK 75 AUDIO
    TITLE "6:cjc137_0124"
    INDEX 01 00:55:73
  TRACK 76 AUDIO
    TITLE "0:"
    INDEX 01 00:56:61
  TRACK 77 AUDIO
    TITLE "5:cjc137_0125"
    INDEX 01 00:56:72
  TRACK 78 AUDIO
    TITLE "0:"
    INDEX 01 00:58:11
  TRACK 79 AUDIO
    TITLE "4:cjc137_0126"
    INDEX 01 00:59:18
  TRACK 80 AUDIO
    TITLE "0:"
    INDEX 01 01:00:21
  TRACK 81 AUDIO
    TITLE "6:cjc137_0127"
    INDEX 01 01:00:35
  TRACK 82 AUDIO
    TITLE "0:"
    INDEX 01 01:01:46
  TRACK 83 AUDIO
    TITLE "5:cjc137_0128"
    INDEX 01 01:01:58
  TRACK 84 AUDIO
    TITLE "0:"
    INDEX 01 01:02:61
